<svg xmlns="http://www.w3.org/2000/svg" version="1.1" xmlns:xlink="http://www.w3.org/1999/xlink" width="512" height="512" x="0" y="0" viewBox="0 0 24 24" style="enable-background:new 0 0 512 512" xml:space="preserve" class=""><g><path d="M10 18c0-.692.097-1.36.262-2H4v-2h7.079a8.02 8.02 0 0 1 1.642-2H4v-2h14c.692 0 1.36.097 2 .262V2h-3V0h-2v2h-2V0h-2v2H9V0H7v2H5V0H3v2H0v19c0 1.654 1.346 3 3 3h9.721A7.972 7.972 0 0 1 10 18ZM4 6h12v2H4V6Zm14 6a6 6 0 1 0 0 12 6 6 0 0 0 0-12Zm.619 8.414c-.378.378-.88.586-1.414.586h-.002a1.983 1.983 0 0 1-1.413-.587l-2.012-2.012 1.414-1.414L17.205 19l3.615-3.615 1.414 1.414-3.615 3.615Z" fill="#2471dd" opacity="1" data-original="#000000" class=""></path></g></svg>